<svg xmlns="http://www.w3.org/2000/svg" viewBox="0 0 436.3 351.24"><defs><style>.cls-1{fill:#27b0de;}</style></defs><title>experienceimg</title><g id="Layer_2" data-name="Layer 2"><g id="Layer_1-2" data-name="Layer 1"><path class="cls-1" d="M239.35,218.27l-.1.11.07.06Zm91.63,133c-3.27-41.55-7.94-81-15.06-89.79-9.77-12-62.67-26.93-62.67-26.93s-13.74,35.91-14.5,38.46c-.45,1.28-8.07-5.5-8.49-4.2-4.9,18.91-15.86,51.1-19.35,69.85l-.09-68,7.44-9.72-8.93-8.05,30.81-29.59s-1-5-1-5a71.59,71.59,0,0,1,3-24.5c4,1.24,8.51-12.78,10.1-17.53a8.88,8.88,0,0,0-1.59-8.3c.2-.8,0-.94,2.37-4.75,2-3.16-1.18-26.08-3.56-33.19s-8.3-11.46-18.58-15.41-24.1-7.11-30.82-7.11S191,111,189,113a62.43,62.43,0,0,1-8.3.78c-3.56,0-8.86,5.26-12.31,10.25-5.49,7.93-5.49,25.34-5,30.45,1.2,12.44,3.08,14.63,4.11,14.82a8.8,8.8,0,0,0-3,1.56c-2.9,2.65,3.55,19,4.74,21s2.32,2.16,2.32,2.16,1.85,5.17,2.77,7.91c1.51,4.46,5.91,7.34,5.92,7.5.17,1.78,3.88,10.49,5,19.92-.52.4-1.17.93-1.89,1.52l.06.44,17.83,22.21-8,7.62,4.73,9.45-9.19,67-8.4-67.75-5.78,4.73L172,239.89l-2.42,1.77c-11,5.74-46.9,23.79-49.95,34.43-1.74,6.1-5,40.42-7.07,75.15Z"/><path class="cls-1" d="M239.62,222.21c-3.94-2.63-50.07,3.5-50.07,3.5l-3.81.26L165.13,244.1l.53,2.36,2.62.79,1.67-4.2,14.53-12.78,14,12.78,22.6-1.4,18.37-17,13.31,10.86.74,4.38,5.91-1.58S243.56,224.84,239.62,222.21Z"/><polygon class="cls-1" points="37.74 244.69 49.4 268.32 75.48 272.11 56.61 290.5 61.06 316.47 37.74 304.21 14.41 316.47 18.87 290.5 0 272.11 26.08 268.32 37.74 244.69"/><polygon class="cls-1" points="353.82 107.5 365.48 131.12 391.56 134.91 372.69 153.31 377.14 179.28 353.82 167.01 330.5 179.28 334.95 153.31 316.08 134.91 342.16 131.12 353.82 107.5"/><polygon class="cls-1" points="202.87 0 214.53 23.63 240.61 27.42 221.74 45.81 226.19 71.78 202.87 59.52 179.55 71.78 184 45.81 165.13 27.42 191.21 23.63 202.87 0"/><polygon class="cls-1" points="63.75 107.5 75.42 131.12 101.49 134.91 82.62 153.31 87.08 179.28 63.75 167.01 40.43 179.28 44.88 153.31 26.02 134.91 52.09 131.12 63.75 107.5"/><polygon class="cls-1" points="398.56 244.69 410.22 268.32 436.3 272.11 417.43 290.5 421.88 316.47 398.56 304.21 375.24 316.47 379.69 290.5 360.82 272.11 386.9 268.32 398.56 244.69"/></g></g></svg>