<svg xmlns="http://www.w3.org/2000/svg" viewBox="0 0 311.09 311.09"><defs><style>.cls-1{fill:#27b0de;}.cls-2{fill:#e2f8ff;}</style></defs><title>skillimage</title><g id="Layer_2" data-name="Layer 2"><g id="Objects"><circle class="cls-1" cx="155.55" cy="155.55" r="155.54" transform="translate(-8.84 9.38) rotate(-3.36)"/><path class="cls-2" d="M178.37,244.84a2.8,2.8,0,0,1-2.92,2.66l-42.69-1a2.8,2.8,0,0,1-2.79-2.8l.09-3.91a2.8,2.8,0,0,1,2.92-2.66l42.69,1a2.8,2.8,0,0,1,2.79,2.8Z"/><path class="cls-2" d="M173.35,258.21a2.54,2.54,0,0,1-2.37,2.67l-34.4-.82a2.54,2.54,0,0,1-2.24-2.78l.09-3.91a2.54,2.54,0,0,1,2.37-2.67l34.4.82a2.54,2.54,0,0,1,2.24,2.78Z"/><path class="cls-2" d="M162.84,264.49a9.15,9.15,0,0,1-18.3-.44"/><path class="cls-2" d="M181.06,231.12l-52.3-1.25c-3.33-.08-5.87-3.4-5.77-7.55a8.74,8.74,0,0,1,1.41-4.65c-1-12.77-9-24-14.85-32.28a82.55,82.55,0,0,1-5.64-8.6,64.17,64.17,0,0,1-2.68-56.73,62.35,62.35,0,0,1,13.44-19.52,60.38,60.38,0,0,1,19.59-12.93,59.23,59.23,0,0,1,47.26,1.13,60.37,60.37,0,0,1,19,13.85A62.36,62.36,0,0,1,213,122.73a63.63,63.63,0,0,1,4.17,24.37,64.37,64.37,0,0,1-2.3,15.63,63.26,63.26,0,0,1-4.15,10.93l.21.09L209,176.91c-.45.79-.91,1.57-1.38,2.33a80.27,80.27,0,0,1-6,8.27c-6.12,7.76-14.41,18.26-16.28,30.77a8.47,8.47,0,0,1,1.46,5.58C186.63,229,183.8,231.19,181.06,231.12Zm-51.51-7.65,50.67,1.21a5.39,5.39,0,0,0,.11-1,5.79,5.79,0,0,0-.08-1.25l-1.81-.62.26-2.54c1.53-15.11,11-27,17.84-35.77a76.26,76.26,0,0,0,5.55-7.56l0-.08c.44-.7.87-1.43,1.28-2.16l0,0A57.8,57.8,0,0,0,207,125a56,56,0,0,0-11.21-18.08,54,54,0,0,0-16.94-12.39,52.81,52.81,0,0,0-42.13-1,54,54,0,0,0-17.51,11.57,56,56,0,0,0-12.06,17.52,57.75,57.75,0,0,0,2.43,51.06l0,.09a78.39,78.39,0,0,0,5.2,7.89c6.52,9.19,15.46,21.78,16.1,37l.07,1.6-1.21,1a2.22,2.22,0,0,0-.33,1.24A2.73,2.73,0,0,0,129.55,223.47Z"/><path class="cls-2" d="M158.39,67.15a3.21,3.21,0,0,1-3.13-3.29l.62-26a3.21,3.21,0,0,1,6.42.15l-.62,26A3.21,3.21,0,0,1,158.39,67.15Z"/><path class="cls-2" d="M257.51,145.27l-26-.62a3.21,3.21,0,0,1,.15-6.42l26,.62a3.21,3.21,0,0,1-.15,6.42Z"/><path class="cls-2" d="M81.79,141.08l-26-.62a3.21,3.21,0,0,1,.15-6.42l26,.62a3.21,3.21,0,0,1-.15,6.42Z"/><path class="cls-2" d="M210.83,83.31A3.21,3.21,0,0,1,208.51,78l17.32-19.43a3.21,3.21,0,0,1,4.79,4.27L213.3,82.24A3.2,3.2,0,0,1,210.83,83.31Z"/><path class="cls-2" d="M104.58,80.78a3.2,3.2,0,0,1-2.42-1.19L85.78,59.36a3.21,3.21,0,0,1,5-4l16.37,20.23a3.21,3.21,0,0,1-2.57,5.23Z"/></g></g></svg>