<svg xmlns="http://www.w3.org/2000/svg" viewBox="0 0 592.04 227.9"><defs><style>.cls-1{fill:#27b0de;}</style></defs><title>contactimg</title><g id="Layer_2" data-name="Layer 2"><g id="Object"><path class="cls-1" d="M582,227.48H238.31a10,10,0,0,1-10-10V10a10,10,0,0,1,10-10H582a10,10,0,0,1,10,10V217.48A10,10,0,0,1,582,227.48Zm-333.72-20H572V20H248.31Z"/><path class="cls-1" d="M410.18,158a10,10,0,0,1-6.26-2.2L232.05,17.8A10,10,0,1,1,244.58,2.2l165.6,133,165.6-133A10,10,0,1,1,588.3,17.8l-171.86,138A10,10,0,0,1,410.18,158Z"/><path class="cls-1" d="M238.32,227.48a10,10,0,0,1-6.46-17.63L357.67,103.41a10,10,0,0,1,12.92,15.27L244.77,225.12A10,10,0,0,1,238.32,227.48Z"/><path class="cls-1" d="M582,227.48a10,10,0,0,1-6.45-2.37L449.76,118.68a10,10,0,1,1,12.92-15.27L588.5,209.85A10,10,0,0,1,582,227.48Z"/><path class="cls-1" d="M202.51,21H125a10,10,0,1,1,0-20h77.47a10,10,0,1,1,0,20Z"/><path class="cls-1" d="M202.51,62.38H182.92a10,10,0,0,1,0-20h19.59a10,10,0,0,1,0,20Z"/><path class="cls-1" d="M104.55,62.38H10a10,10,0,0,1,0-20h94.55a10,10,0,0,1,0,20Z"/><path class="cls-1" d="M202.51,103.76H125a10,10,0,0,1,0-20h77.47a10,10,0,0,1,0,20Z"/><path class="cls-1" d="M76.95,103.76H38.21a10,10,0,0,1,0-20H76.95a10,10,0,0,1,0,20Z"/><path class="cls-1" d="M202.51,145.14H105.44a10,10,0,0,1,0-20h97.06a10,10,0,1,1,0,20Z"/><path class="cls-1" d="M202.51,186.52h-24a10,10,0,0,1,0-20h24a10,10,0,1,1,0,20Z"/><path class="cls-1" d="M149.08,186.52H66.26a10,10,0,0,1,0-20h82.81a10,10,0,0,1,0,20Z"/><path class="cls-1" d="M202.51,227.9H149.08a10,10,0,0,1,0-20h53.43a10,10,0,1,1,0,20Z"/></g></g></svg>