<svg xmlns="http://www.w3.org/2000/svg" viewBox="0 0 185.29 107.69"><defs><style>.cls-1{fill:#27b0de;}</style></defs><title>educationimg_1</title><g id="Layer_2" data-name="Layer 2"><g id="Objects"><path class="cls-1" d="M25.4,58.2A7.49,7.49,0,0,0,21,70.06L17.87,88.58a2.73,2.73,0,0,0,2.69,3.18H33.37a2.73,2.73,0,0,0,2.7-3.1L33.41,69.35a7.47,7.47,0,0,0-2.55-10.21v-10l16.87,7.32V98.33a9.37,9.37,0,0,0,9.36,9.36h77a9.37,9.37,0,0,0,9.36-9.36V53.88l40.19-17.44a2.73,2.73,0,0,0-.2-5.09L92,.15a2.72,2.72,0,0,0-1.85,0C58.88,12,7.48,30.92,2.71,31.21a2.73,2.73,0,0,0-1.06,5.23L25.4,46.75ZM23.8,86.31l2.81-16.67a2.73,2.73,0,0,0-.94-2.55,2,2,0,1,1,2.83-.23A2.72,2.72,0,0,0,27.85,69l2.39,17.28Zm114.2,12a3.91,3.91,0,0,1-3.9,3.9h-77a3.91,3.91,0,0,1-3.9-3.9V58.81L91.56,75.45a2.73,2.73,0,0,0,2.17,0L138,56.25ZM11,34.56c19.76-6.16,67.22-24,80.17-28.93L175,34.24,92.64,70,38.26,46.38l45.92-6.06a16.57,16.57,0,0,0,8.46,2c6.33,0,11.11-2.52,11.11-5.86S99,30.59,92.64,30.59c-5.46,0-9.76,1.88-10.83,4.54l-53.28,7Zm73.25,1.89c0-1.28,3.26-3.13,8.38-3.13S101,35.17,101,36.45s-3.26,3.13-8.38,3.13S84.27,37.73,84.27,36.45Z"/></g></g></svg>