<svg xmlns="http://www.w3.org/2000/svg" viewBox="0 0 208.16 238.71"><defs><style>.cls-1{fill:#27b0de;}</style></defs><title>skillimage_1</title><g id="Layer_2" data-name="Layer 2"><g id="Objects"><path class="cls-1" d="M125.73,210.12a2.8,2.8,0,0,1-2.92,2.66l-42.69-1a2.8,2.8,0,0,1-2.79-2.8l.09-3.91a2.8,2.8,0,0,1,2.92-2.66l42.69,1a2.8,2.8,0,0,1,2.79,2.8Z"/><path class="cls-1" d="M120.71,223.49a2.54,2.54,0,0,1-2.37,2.67l-34.4-.82a2.54,2.54,0,0,1-2.24-2.78l.09-3.91A2.54,2.54,0,0,1,84.17,216l34.4.82a2.54,2.54,0,0,1,2.24,2.78Z"/><path class="cls-1" d="M110.2,229.78a9.15,9.15,0,0,1-18.3-.44"/><path class="cls-1" d="M128.42,196.41l-52.3-1.25c-3.33-.08-5.87-3.4-5.77-7.55A8.74,8.74,0,0,1,71.76,183c-1-12.77-9-24-14.85-32.28a82.55,82.55,0,0,1-5.64-8.6,64.17,64.17,0,0,1-2.68-56.73A62.35,62.35,0,0,1,62,65.83,60.38,60.38,0,0,1,81.62,52.89,59.23,59.23,0,0,1,128.88,54a60.37,60.37,0,0,1,19,13.85A62.36,62.36,0,0,1,160.33,88a63.63,63.63,0,0,1,4.17,24.37A64.37,64.37,0,0,1,162.2,128,63.26,63.26,0,0,1,158,138.95l.21.09-1.92,3.15c-.45.79-.91,1.57-1.38,2.33a80.27,80.27,0,0,1-6,8.27c-6.12,7.76-14.41,18.26-16.28,30.77a8.47,8.47,0,0,1,1.46,5.58C134,194.25,131.16,196.47,128.42,196.41Zm-51.51-7.65L127.59,190a5.39,5.39,0,0,0,.11-1,5.79,5.79,0,0,0-.08-1.25l-1.81-.62.26-2.54c1.53-15.11,11-27,17.84-35.77a76.26,76.26,0,0,0,5.55-7.56l0-.08c.44-.7.87-1.43,1.28-2.16l0,0a57.8,57.8,0,0,0,3.54-48.65,56,56,0,0,0-11.21-18.08,54,54,0,0,0-16.94-12.39,52.81,52.81,0,0,0-42.13-1A54,54,0,0,0,66.53,70.4,56,56,0,0,0,54.47,87.93,57.75,57.75,0,0,0,56.9,139l0,.09a78.39,78.39,0,0,0,5.2,7.89c6.52,9.19,15.46,21.78,16.1,37l.07,1.6-1.21,1a2.22,2.22,0,0,0-.33,1.24A2.73,2.73,0,0,0,76.91,188.76Z"/><path class="cls-1" d="M105.75,32.44a3.21,3.21,0,0,1-3.13-3.29l.62-26a3.21,3.21,0,0,1,6.42.15l-.62,26A3.21,3.21,0,0,1,105.75,32.44Z"/><path class="cls-1" d="M204.87,110.56l-26-.62a3.21,3.21,0,0,1,.15-6.42l26,.62a3.21,3.21,0,0,1-.15,6.42Z"/><path class="cls-1" d="M29.15,106.37l-26-.62a3.21,3.21,0,0,1,.15-6.42l26,.62a3.21,3.21,0,0,1-.15,6.42Z"/><path class="cls-1" d="M158.19,48.6a3.21,3.21,0,0,1-2.32-5.34l17.32-19.43A3.21,3.21,0,0,1,178,28.1L160.66,47.53A3.2,3.2,0,0,1,158.19,48.6Z"/><path class="cls-1" d="M51.94,46.07a3.2,3.2,0,0,1-2.42-1.19L33.15,24.65a3.21,3.21,0,0,1,5-4L54.51,40.84a3.21,3.21,0,0,1-2.57,5.23Z"/></g></g></svg>